<?xml version="1.0" encoding="utf-8"?>
<!-- Generator: Adobe Illustrator 26.1.0, SVG Export Plug-In . SVG Version: 6.00 Build 0)  -->
<svg version="1.1" xmlns="http://www.w3.org/2000/svg" xmlns:xlink="http://www.w3.org/1999/xlink" x="0px" y="0px"
	 viewBox="0 0 924 495" style="enable-background:new 0 0 924 495;" xml:space="preserve">
<style type="text/css">
	.st0{display:none;}
	.st1{display:inline;}
	.st2{fill:#2B3F7F;}
	.st3{fill:none;stroke:#ED4C4C;stroke-width:12;stroke-linecap:round;stroke-miterlimit:10;}
	.st4{fill:none;stroke:#457FF4;stroke-width:12;stroke-linecap:round;stroke-miterlimit:10;}
	.st5{fill:none;stroke:#79F279;stroke-width:12;stroke-linecap:round;stroke-miterlimit:10;}
	.st6{fill:#4D4D4D;}
	.st7{fill:none;stroke:#333333;stroke-width:12;stroke-linecap:round;stroke-miterlimit:10;}
	.st8{fill:none;stroke:#808080;stroke-width:12;stroke-linecap:round;stroke-miterlimit:10;}
	.st9{fill:none;stroke:#CCCCCC;stroke-width:12;stroke-linecap:round;stroke-miterlimit:10;}
</style>
<g id="color" class="st0">
	<g class="st1">
		<circle class="st2" cx="261.35" cy="230.41" r="91.18"/>
		<path class="st3" d="M66.39,250.72C91.3,124.51,117.35,27.45,149.05,26.93c78.42-1.28,75.78,429.34,157.13,439.64
			c36.07,4.57,58.03-18.69,94.86-169.18"/>
		<path class="st4" d="M17.15,196.94c95.8-82.24,114.59-170.21,153.61-170.73c96.46-1.28,94.68,441.15,193.28,441.41
			c50.68,0.14,78.49-101.94,100.9-203.71"/>
		<path class="st5" d="M29.47,262.71C95.91,72.88,150.66,26.73,197.33,26.21c115.69-1.28,107.82,429.21,225.44,441.41
			c41.91,4.35,67.97-73.86,107.08-247.76"/>
	</g>
</g>
<g id="mono" class="st0">
	<g class="st1">
		<circle class="st6" cx="261.83" cy="230.69" r="91.18"/>
		<path class="st7" d="M66.87,251c24.91-126.21,50.95-223.26,82.65-223.78c78.42-1.28,75.78,429.34,157.13,439.64
			c36.07,4.57,58.03-18.69,94.86-169.18"/>
		<path class="st8" d="M17.63,197.23c95.8-82.24,114.59-170.21,153.61-170.73c96.46-1.28,94.68,441.15,193.28,441.41
			c50.68,0.14,78.49-101.94,100.9-203.71"/>
		<path class="st9" d="M29.95,263C96.39,73.17,151.14,27.01,197.81,26.49C313.5,25.21,305.63,455.7,423.25,467.9
			c41.91,4.35,67.97-73.86,107.08-247.76"/>
	</g>
</g>
<g id="Слой_3">
	<g>
		<path class="st2" d="M456.35,179.77c-0.74,0-1.39-0.47-1.62-1.18c-0.86-2.64-1.77-5.34-2.73-8.1c-0.98-2.79-1.95-5.57-2.92-8.34
			c-0.24-0.69-0.89-1.14-1.62-1.14l-28.8,0c-0.73,0-1.38,0.46-1.62,1.15c-0.96,2.78-1.93,5.56-2.89,8.36
			c-0.96,2.76-1.85,5.45-2.7,8.07c-0.23,0.71-0.88,1.18-1.62,1.18l-17.9,0c-1.18,0-2.01-1.18-1.61-2.29
			c2.97-8.46,5.79-16.33,8.48-23.59c2.93-7.92,5.79-15.38,8.59-22.38c2.8-7,5.56-13.65,8.28-19.95c2.57-5.96,5.24-11.78,8-17.48
			c0.29-0.59,0.89-0.97,1.55-0.97h16.32c0.66,0,1.27,0.38,1.55,0.98c2.69,5.69,5.34,11.51,7.95,17.46
			c2.76,6.3,5.55,12.94,8.36,19.95c2.8,7,5.67,14.46,8.6,22.38c2.69,7.27,5.52,15.13,8.49,23.59c0.39,1.11-0.43,2.29-1.61,2.29
			L456.35,179.77z M433.34,116.87c-0.57-1.45-0.02-1.45-0.59,0l-0.39,1.01c-0.84,2.17-1.79,4.67-2.86,7.51
			c-1.07,2.84-2.27,5.97-3.59,9.38c-1.05,2.71-2.11,5.52-3.19,8.43c-0.41,1.12,0.42,2.31,1.61,2.31l17.3,0
			c1.18,0,2.01-1.18,1.61-2.29c-1.04-2.93-2.05-5.76-3.04-8.48c-1.24-3.42-2.42-6.56-3.54-9.4c-1.12-2.84-2.1-5.34-2.94-7.5
			L433.34,116.87z"/>
		<path class="st2" d="M488.81,96.84l7.33-1.18c3.44-0.55,6.55,2.1,6.55,5.58v7.1c0,3.12,2.53,5.65,5.65,5.65h11.08
			c3.12,0,5.65,2.53,5.65,5.65v4.2c0,3.12-2.53,5.65-5.65,5.65h-11.08c-3.12,0-5.65,2.53-5.65,5.65v17.48
			c0,3.92,0.69,7.05,2.06,9.38c1.38,2.33,4.15,3.5,8.32,3.5c2,0,4.06-0.19,6.19-0.56c0.09-0.02,0.17-0.03,0.26-0.05
			c3.1-0.57,6.09,1.43,6.65,4.53l0.67,3.69c0.52,2.86-1.21,5.64-4,6.44c-0.85,0.25-1.73,0.48-2.63,0.7c-2.75,0.67-6.13,1-10.13,1
			c-5.09,0-9.3-0.69-12.63-2.06c-3.34-1.38-6-3.29-8-5.75c-2-2.46-3.4-5.44-4.19-8.94c-0.79-3.5-1.19-7.38-1.19-11.63v-50.46
			C484.06,99.65,486.07,97.28,488.81,96.84z"/>
		<path class="st2" d="M599.23,146.75c0,5.17-0.75,9.9-2.25,14.19c-1.5,4.3-3.67,7.96-6.5,11c-2.84,3.04-6.23,5.4-10.19,7.07
			c-3.96,1.67-8.4,2.5-13.32,2.5c-4.84,0-9.23-0.83-13.19-2.5c-3.96-1.67-7.36-4.02-10.19-7.07c-2.84-3.04-5.05-6.71-6.63-11
			c-1.58-4.29-2.37-9.02-2.37-14.19c0-5.17,0.81-9.88,2.44-14.13c1.63-4.25,3.88-7.88,6.75-10.88c2.88-3,6.29-5.33,10.25-7
			c3.96-1.67,8.27-2.5,12.94-2.5c4.75,0,9.11,0.83,13.07,2.5c3.96,1.67,7.36,4,10.19,7c2.83,3,5.04,6.63,6.63,10.88
			C598.44,136.87,599.23,141.58,599.23,146.75z M580.22,146.75c0-5.75-1.15-10.27-3.44-13.57c-2.29-3.29-5.56-4.94-9.82-4.94
			c-4.25,0-7.55,1.65-9.88,4.94c-2.33,3.29-3.5,7.82-3.5,13.57c0,5.75,1.17,10.32,3.5,13.69c2.33,3.38,5.63,5.06,9.88,5.06
			c4.25,0,7.52-1.69,9.82-5.06C579.08,157.07,580.22,152.5,580.22,146.75z"/>
		<path class="st2" d="M649.75,144.88c0-6-0.77-10.25-2.31-12.76c-1.54-2.5-4.19-3.75-7.94-3.75c-1.17,0-2.38,0.06-3.63,0.19
			c-0.01,0-0.03,0-0.04,0c-2.04,0.21-3.59,1.95-3.59,4.01v43.17c0,2.23-1.8,4.03-4.03,4.03h-10.57c-2.23,0-4.03-1.8-4.03-4.03V119.4
			c0-1.88,1.28-3.5,3.11-3.93c0.77-0.18,1.59-0.36,2.45-0.55c2.13-0.46,4.38-0.88,6.75-1.25c2.38-0.38,4.81-0.67,7.32-0.88
			c2.5-0.21,4.96-0.31,7.38-0.31c4.75,0,8.61,0.61,11.57,1.81c1.97,0.81,3.71,1.71,5.22,2.72c1.29,0.86,2.94,0.96,4.28,0.17
			c2.12-1.25,4.46-2.28,7.01-3.08c3.46-1.08,6.65-1.63,9.57-1.63c5.25,0,9.57,0.73,12.94,2.19c3.38,1.46,6.07,3.52,8.07,6.19
			c2,2.67,3.38,5.84,4.13,9.5c0.75,3.67,1.12,7.75,1.12,12.25v33.11c0,2.23-1.8,4.03-4.03,4.03h-10.57c-2.23,0-4.03-1.8-4.03-4.03
			v-30.86c0-6-0.77-10.25-2.31-12.76c-1.54-2.5-4.19-3.75-7.94-3.75c-1,0-2.4,0.25-4.19,0.75c-0.36,0.1-0.71,0.21-1.05,0.32
			c-1.88,0.62-3.03,2.57-2.67,4.51c0.19,1.01,0.32,2.05,0.41,3.11c0.17,2.13,0.25,4.4,0.25,6.82v31.86c0,2.23-1.8,4.03-4.03,4.03
			h-10.57c-2.23,0-4.03-1.8-4.03-4.03V144.88z"/>
		<path class="st2" d="M741.79,94.98c0,3.42-1.11,6.11-3.31,8.07c-2.21,1.96-4.81,2.94-7.82,2.94c-3,0-5.61-0.98-7.82-2.94
			c-2.21-1.96-3.31-4.65-3.31-8.07c0-3.42,1.1-6.11,3.31-8.07c2.21-1.96,4.81-2.94,7.82-2.94c3,0,5.61,0.98,7.82,2.94
			C740.68,88.87,741.79,91.56,741.79,94.98z M734.44,179.77H727c-3.09,0-5.6-2.51-5.6-5.6v-54.58c0-3.09,2.51-5.6,5.6-5.6h7.44
			c3.09,0,5.6,2.51,5.6,5.6v54.58C740.04,177.26,737.53,179.77,734.44,179.77z"/>
		<path class="st2" d="M806.94,124.96c0,0.98-0.36,1.93-1.02,2.66c-1.36,1.51-3.05,3.39-5.06,5.63c-2.55,2.83-5.28,5.96-8.21,9.38
			c-2.93,3.42-5.87,7-8.84,10.75c-1.21,1.53-2.37,3.04-3.49,4.52c-1.97,2.62-0.07,6.36,3.2,6.36h20.05c2.2,0,3.98,1.78,3.98,3.98
			v7.54c0,2.2-1.78,3.98-3.98,3.98h-46.43c-2.2,0-3.98-1.78-3.98-3.98v-5.92c0-0.72,0.18-1.42,0.55-2.04
			c1.64-2.73,3.55-5.65,5.76-8.75c2.46-3.46,5.04-6.94,7.75-10.44c2.71-3.5,5.4-6.9,8.07-10.19c0.68-0.83,1.34-1.65,1.99-2.44
			c2.13-2.6,0.27-6.5-3.09-6.5l-15.55,0c-2.2,0-3.98-1.78-3.98-3.98v-7.54c0-2.2,1.78-3.98,3.98-3.98h44.31
			c2.2,0,3.98,1.78,3.98,3.98V124.96z"/>
		<path class="st2" d="M815.07,147.38c0-5.83,0.89-10.94,2.69-15.32c1.79-4.38,4.15-8.02,7.07-10.94c2.92-2.92,6.27-5.13,10.07-6.63
			c3.79-1.5,7.69-2.25,11.69-2.25c9.34,0,16.71,2.86,22.13,8.57c5.42,5.71,8.13,14.11,8.13,25.2c0,1.08-0.04,2.27-0.12,3.56
			c-0.02,0.28-0.04,0.55-0.05,0.81c-0.1,1.48-1.33,2.63-2.82,2.63l-36,0c-2.02,0-3.43,2.08-2.62,3.93c0.9,2.05,2.35,3.78,4.35,5.2
			c3.17,2.25,7.42,3.38,12.76,3.38c3.42,0,6.77-0.31,10.07-0.94c1.85-0.35,3.51-0.75,4.98-1.19c1.66-0.5,3.36,0.56,3.64,2.26
			l1.58,9.54c0.23,1.36-0.57,2.68-1.87,3.14c-0.54,0.19-1.13,0.38-1.76,0.57c-1.67,0.5-3.52,0.94-5.57,1.31
			c-2.04,0.38-4.23,0.69-6.57,0.94c-2.33,0.25-4.67,0.38-7,0.38c-5.92,0-11.07-0.88-15.44-2.63c-4.38-1.75-8-4.15-10.88-7.19
			c-2.88-3.04-5-6.65-6.38-10.82C815.75,156.72,815.07,152.21,815.07,147.38z M855.58,140.25c1.79,0,3.18-1.66,2.77-3.4
			c-0.1-0.41-0.21-0.82-0.33-1.22c-0.46-1.5-1.17-2.83-2.13-4c-0.96-1.17-2.17-2.13-3.63-2.88c-1.46-0.75-3.27-1.13-5.44-1.13
			c-2.08,0-3.88,0.36-5.38,1.06c-1.5,0.71-2.75,1.65-3.75,2.81c-1,1.17-1.77,2.52-2.31,4.06c-0.12,0.33-0.23,0.67-0.33,1
			c-0.57,1.83,0.79,3.69,2.71,3.69H855.58z"/>
		<path class="st2" d="M911.98,169.89c0,3.67-1.19,6.5-3.56,8.5c-2.38,2-5.06,3-8.07,3c-3,0-5.69-1-8.07-3
			c-2.38-2-3.56-4.83-3.56-8.5c0-3.67,1.19-6.5,3.56-8.5c2.38-2,5.06-3,8.07-3c3,0,5.69,1,8.07,3
			C910.79,163.38,911.98,166.22,911.98,169.89z M910.35,115.49c0,6.75-0.25,13.05-0.75,18.88c-0.37,4.31-0.83,8.66-1.38,13.06
			c-0.34,2.68-2.59,4.7-5.29,4.7h-4.91c-2.69,0-4.95-2.01-5.29-4.69c-0.56-4.4-1.04-8.76-1.44-13.07
			c-0.54-5.83-0.81-12.13-0.81-18.88V98.44c0-2.94,2.39-5.33,5.33-5.33h9.22c2.94,0,5.33,2.39,5.33,5.33V115.49z"/>
	</g>
	<g>
		<circle class="st2" cx="261.35" cy="230.41" r="91.18"/>
		<path class="st3" d="M66.39,250.72C91.3,124.51,117.35,27.45,149.05,26.93c78.42-1.28,75.78,429.34,157.13,439.64
			c36.07,4.57,58.03-18.69,94.86-169.18"/>
		<path class="st4" d="M17.15,196.94c95.8-82.24,114.59-170.21,153.61-170.73c96.46-1.28,94.68,441.15,193.28,441.41
			c50.68,0.14,78.49-101.94,100.9-203.71"/>
		<path class="st5" d="M29.47,262.71C95.91,72.88,150.66,26.73,197.33,26.21c115.69-1.28,107.82,429.21,225.44,441.41
			c41.91,4.35,67.97-73.86,107.08-247.76"/>
	</g>
</g>
</svg>
